<?xml version="1.0"?><svg xmlns="http://www.w3.org/2000/svg" xmlns:xlink="http://www.w3.org/1999/xlink" viewBox="77.2 283.72 416.08 51.98" preserveAspectRatio="xMidYMid" width="100%" height="100%"><clipPath id="212"><rect x="0.3" y="0.3" width="539.4" height="719.15" /></clipPath><g id="drawing"><rect x="77.2" y="283.72" width="100%" height="100%" fill="rgb(255, 255, 255)" /><g id="page" clip-path="url(#212)"><g id="Solid"><path d="M100.05 301.05 L100.05 301.05 L100.22 300.75 L100.57 300.75 L107.59 312.92 L107.42 313.22 L107.25 313.52 Z" stroke="rgb(0, 0, 0)" stroke-width="0" fill-rule="evenodd" stroke-linejoin="miter" fill="rgb(0, 0, 0)" shape-rendering="geometricPrecision" /><line x1="103.21" y1="300.75" x2="108.92" y2="310.63" stroke="rgb(0, 0, 0)" stroke-width="0.6" shape-rendering="auto" /></g><g id="Solid"><path d="M107.25 313.52 L107.25 313.52 L107.42 313.22 L107.59 312.92 L121.65 312.92 L121.82 313.22 L121.99 313.52 Z" stroke="rgb(0, 0, 0)" stroke-width="0" fill-rule="evenodd" stroke-linejoin="miter" fill="rgb(0, 0, 0)" shape-rendering="geometricPrecision" /></g><g id="Solid"><path d="M121.99 313.52 L121.99 313.52 L121.82 313.22 L121.65 312.92 L128.67 300.75 L129.02 300.75 L129.19 301.05 Z" stroke="rgb(0, 0, 0)" stroke-width="0" fill-rule="evenodd" stroke-linejoin="miter" fill="rgb(0, 0, 0)" shape-rendering="geometricPrecision" /><line x1="120.32" y1="310.63" x2="126.03" y2="300.75" stroke="rgb(0, 0, 0)" stroke-width="0.6" shape-rendering="auto" /></g><g id="Solid"><path d="M129.19 300.45 L129.19 300.45 L129.02 300.75 L128.67 300.75 L121.65 288.58 L121.82 288.28 L121.99 287.98 Z" stroke="rgb(0, 0, 0)" stroke-width="0" fill-rule="evenodd" stroke-linejoin="miter" fill="rgb(0, 0, 0)" shape-rendering="geometricPrecision" /></g><g id="Solid"><path d="M121.99 287.98 L121.99 287.98 L121.82 288.28 L121.65 288.58 L107.59 288.58 L107.42 288.28 L107.25 287.98 Z" stroke="rgb(0, 0, 0)" stroke-width="0" fill-rule="evenodd" stroke-linejoin="miter" fill="rgb(0, 0, 0)" shape-rendering="geometricPrecision" /><line x1="120.32" y1="290.87" x2="108.92" y2="290.87" stroke="rgb(0, 0, 0)" stroke-width="0.6" shape-rendering="auto" /></g><g id="Solid"><path d="M107.25 287.98 L107.25 287.98 L107.42 288.28 L107.59 288.58 L100.57 300.75 L100.22 300.75 L100.05 300.45 Z" stroke="rgb(0, 0, 0)" stroke-width="0" fill-rule="evenodd" stroke-linejoin="miter" fill="rgb(0, 0, 0)" shape-rendering="geometricPrecision" /></g><g><text xml:space="preserve" text-anchor="end" text-rendering="geometricPrecision"><tspan x="88.6" y="304.65" font-family="Arial" font-size="10" fill="rgb(0, 0, 0)">N</tspan><tspan font-family="Arial" dy="2.26" font-size="7.5" fill="rgb(0, 0, 0)">2</tspan></text></g><g id="Solid"><path d="M100.05 300.45 L100.05 300.45 L100.22 300.75 L100.05 301.05 L89.9 301.05 L89.9 300.75 L89.9 300.45 Z" stroke="rgb(0, 0, 0)" stroke-width="0" fill-rule="evenodd" stroke-linejoin="miter" fill="rgb(0, 0, 0)" shape-rendering="geometricPrecision" /></g><g id="Charge40"><circle cx="81.48" cy="291.06" r="3.33333333333333" stroke="rgb(0, 0, 0)" stroke-width="0.48" fill="none" /><line x1="79.51" y1="291.06" x2="83.45" y2="291.06" stroke="rgb(0, 0, 0)" stroke-width="0.48" shape-rendering="auto" /><line x1="81.48" y1="289.09" x2="81.48" y2="293.03" stroke="rgb(0, 0, 0)" stroke-width="0.48" shape-rendering="auto" /></g><g id="Solid"><path d="M336 301.05 L336 301.05 L336.17 300.75 L336.52 300.75 L343.54 312.92 L343.37 313.22 L343.2 313.52 Z" stroke="rgb(0, 0, 0)" stroke-width="0" fill-rule="evenodd" stroke-linejoin="miter" fill="rgb(0, 0, 0)" shape-rendering="geometricPrecision" /><line x1="339.16" y1="300.75" x2="344.87" y2="310.63" stroke="rgb(0, 0, 0)" stroke-width="0.6" shape-rendering="auto" /></g><g id="Solid"><path d="M343.2 313.52 L343.2 313.52 L343.37 313.22 L343.54 312.92 L357.6 312.92 L357.77 313.22 L357.94 313.52 Z" stroke="rgb(0, 0, 0)" stroke-width="0" fill-rule="evenodd" stroke-linejoin="miter" fill="rgb(0, 0, 0)" shape-rendering="geometricPrecision" /></g><g id="Solid"><path d="M357.94 313.52 L357.94 313.52 L357.77 313.22 L357.6 312.92 L364.62 300.75 L364.97 300.75 L365.14 301.05 Z" stroke="rgb(0, 0, 0)" stroke-width="0" fill-rule="evenodd" stroke-linejoin="miter" fill="rgb(0, 0, 0)" shape-rendering="geometricPrecision" /><line x1="356.27" y1="310.63" x2="361.98" y2="300.75" stroke="rgb(0, 0, 0)" stroke-width="0.6" shape-rendering="auto" /></g><g id="Solid"><path d="M365.14 300.45 L365.14 300.45 L364.97 300.75 L364.62 300.75 L357.6 288.58 L357.77 288.28 L357.94 287.98 Z" stroke="rgb(0, 0, 0)" stroke-width="0" fill-rule="evenodd" stroke-linejoin="miter" fill="rgb(0, 0, 0)" shape-rendering="geometricPrecision" /></g><g id="Solid"><path d="M357.94 287.98 L357.94 287.98 L357.77 288.28 L357.6 288.58 L343.54 288.58 L343.37 288.28 L343.2 287.98 Z" stroke="rgb(0, 0, 0)" stroke-width="0" fill-rule="evenodd" stroke-linejoin="miter" fill="rgb(0, 0, 0)" shape-rendering="geometricPrecision" /><line x1="356.27" y1="290.87" x2="344.87" y2="290.87" stroke="rgb(0, 0, 0)" stroke-width="0.6" shape-rendering="auto" /></g><g id="Solid"><path d="M343.2 287.98 L343.2 287.98 L343.37 288.28 L343.54 288.58 L336.52 300.75 L336.17 300.75 L336 300.45 Z" stroke="rgb(0, 0, 0)" stroke-width="0" fill-rule="evenodd" stroke-linejoin="miter" fill="rgb(0, 0, 0)" shape-rendering="geometricPrecision" /></g><g><text xml:space="preserve" text-anchor="end" text-rendering="geometricPrecision"><tspan x="324.55" y="304.65" font-family="Arial" font-size="10" fill="rgb(0, 0, 0)">N</tspan><tspan font-family="Arial" dy="2.26" font-size="7.5" fill="rgb(0, 0, 0)">2</tspan></text></g><g id="Solid"><path d="M336 300.45 L336 300.45 L336.17 300.75 L336 301.05 L324.97 301.05 L324.97 300.75 L324.97 300.45 Z" stroke="rgb(0, 0, 0)" stroke-width="0" fill-rule="evenodd" stroke-linejoin="miter" fill="rgb(0, 0, 0)" shape-rendering="geometricPrecision" /></g><g id="Charge64"><circle cx="317.43" cy="291.06" r="3.33333333333333" stroke="rgb(0, 0, 0)" stroke-width="0.48" fill="none" /><line x1="315.46" y1="291.06" x2="319.4" y2="291.06" stroke="rgb(0, 0, 0)" stroke-width="0.48" shape-rendering="auto" /><line x1="317.43" y1="289.09" x2="317.43" y2="293.03" stroke="rgb(0, 0, 0)" stroke-width="0.48" shape-rendering="auto" /></g><g id="Solid"><path d="M129.19 301.05 L129.19 301.05 L129.02 300.75 L129.19 300.45 L143.25 300.45 L143.42 300.75 L143.59 301.05 Z" stroke="rgb(0, 0, 0)" stroke-width="0" fill-rule="evenodd" stroke-linejoin="miter" fill="rgb(0, 0, 0)" shape-rendering="geometricPrecision" /></g><g id="Solid"><path d="M143.59 301.05 L143.59 301.05 L143.42 300.75 L143.25 300.45 L150.45 287.98 L150.62 288.28 L150.79 288.58 Z" stroke="rgb(0, 0, 0)" stroke-width="0" fill-rule="evenodd" stroke-linejoin="miter" fill="rgb(0, 0, 0)" shape-rendering="geometricPrecision" /></g><g id="Solid"><path d="M150.79 288.58 L150.79 288.58 L150.62 288.28 L150.45 287.98 L160.6 287.98 L160.6 288.28 L160.6 288.58 Z" stroke="rgb(0, 0, 0)" stroke-width="0" fill-rule="evenodd" stroke-linejoin="miter" fill="rgb(0, 0, 0)" shape-rendering="geometricPrecision" /></g><g><text xml:space="preserve" text-anchor="start" text-rendering="geometricPrecision"><tspan x="161.42" y="292.18" font-family="Arial" font-size="10" fill="rgb(0, 0, 0)">NH</tspan><tspan font-family="Arial" dy="2.26" font-size="7.5" fill="rgb(0, 0, 0)">2</tspan></text></g><g id="Solid"><path d="M219.97 301.05 L219.97 301.05 L220.14 300.75 L220.49 300.75 L227.51 312.92 L227.34 313.22 L227.17 313.52 Z" stroke="rgb(0, 0, 0)" stroke-width="0" fill-rule="evenodd" stroke-linejoin="miter" fill="rgb(0, 0, 0)" shape-rendering="geometricPrecision" /><line x1="223.13" y1="300.75" x2="228.84" y2="310.63" stroke="rgb(0, 0, 0)" stroke-width="0.6" shape-rendering="auto" /></g><g id="Solid"><path d="M227.17 313.52 L227.17 313.52 L227.34 313.22 L227.51 312.92 L241.57 312.92 L241.74 313.22 L241.91 313.52 Z" stroke="rgb(0, 0, 0)" stroke-width="0" fill-rule="evenodd" stroke-linejoin="miter" fill="rgb(0, 0, 0)" shape-rendering="geometricPrecision" /></g><g id="Solid"><path d="M241.91 313.52 L241.91 313.52 L241.74 313.22 L241.57 312.92 L248.59 300.75 L248.94 300.75 L249.11 301.05 Z" stroke="rgb(0, 0, 0)" stroke-width="0" fill-rule="evenodd" stroke-linejoin="miter" fill="rgb(0, 0, 0)" shape-rendering="geometricPrecision" /><line x1="240.24" y1="310.63" x2="245.95" y2="300.75" stroke="rgb(0, 0, 0)" stroke-width="0.6" shape-rendering="auto" /></g><g id="Solid"><path d="M249.11 300.45 L249.11 300.45 L248.94 300.75 L248.59 300.75 L241.57 288.58 L241.74 288.28 L241.91 287.98 Z" stroke="rgb(0, 0, 0)" stroke-width="0" fill-rule="evenodd" stroke-linejoin="miter" fill="rgb(0, 0, 0)" shape-rendering="geometricPrecision" /></g><g id="Solid"><path d="M241.91 287.98 L241.91 287.98 L241.74 288.28 L241.57 288.58 L227.51 288.58 L227.34 288.28 L227.17 287.98 Z" stroke="rgb(0, 0, 0)" stroke-width="0" fill-rule="evenodd" stroke-linejoin="miter" fill="rgb(0, 0, 0)" shape-rendering="geometricPrecision" /><line x1="240.24" y1="290.87" x2="228.84" y2="290.87" stroke="rgb(0, 0, 0)" stroke-width="0.6" shape-rendering="auto" /></g><g id="Solid"><path d="M227.17 287.98 L227.17 287.98 L227.34 288.28 L227.51 288.58 L220.49 300.75 L220.14 300.75 L219.97 300.45 Z" stroke="rgb(0, 0, 0)" stroke-width="0" fill-rule="evenodd" stroke-linejoin="miter" fill="rgb(0, 0, 0)" shape-rendering="geometricPrecision" /></g><g><text xml:space="preserve" text-anchor="end" text-rendering="geometricPrecision"><tspan x="208.52" y="304.65" font-family="Arial" font-size="10" fill="rgb(0, 0, 0)">N</tspan><tspan font-family="Arial" dy="2.26" font-size="7.5" fill="rgb(0, 0, 0)">2</tspan></text></g><g id="Solid"><path d="M219.97 300.45 L219.97 300.45 L220.14 300.75 L219.97 301.05 L209.8 301.05 L209.8 300.75 L209.8 300.45 Z" stroke="rgb(0, 0, 0)" stroke-width="0" fill-rule="evenodd" stroke-linejoin="miter" fill="rgb(0, 0, 0)" shape-rendering="geometricPrecision" /></g><g id="Charge92"><circle cx="201.41" cy="291.06" r="3.33333333333333" stroke="rgb(0, 0, 0)" stroke-width="0.48" fill="none" /><line x1="199.44" y1="291.06" x2="203.38" y2="291.06" stroke="rgb(0, 0, 0)" stroke-width="0.48" shape-rendering="auto" /><line x1="201.41" y1="289.09" x2="201.41" y2="293.03" stroke="rgb(0, 0, 0)" stroke-width="0.48" shape-rendering="auto" /></g><g id="Solid"><path d="M249.11 301.05 L249.11 301.05 L248.94 300.75 L249.11 300.45 L263.17 300.45 L263.34 300.75 L263.51 301.05 Z" stroke="rgb(0, 0, 0)" stroke-width="0" fill-rule="evenodd" stroke-linejoin="miter" fill="rgb(0, 0, 0)" shape-rendering="geometricPrecision" /></g><g id="Solid"><path d="M263.51 301.05 L263.51 301.05 L263.34 300.75 L263.17 300.45 L270.37 287.98 L270.54 288.28 L270.71 288.58 Z" stroke="rgb(0, 0, 0)" stroke-width="0" fill-rule="evenodd" stroke-linejoin="miter" fill="rgb(0, 0, 0)" shape-rendering="geometricPrecision" /></g><g><text xml:space="preserve" text-anchor="start" text-rendering="geometricPrecision"><tspan x="281.04" y="292.18" font-family="Arial" font-size="10" fill="rgb(0, 0, 0)">OH</tspan></text></g><g id="Solid"><path d="M270.71 288.58 L270.71 288.58 L270.54 288.28 L270.37 287.98 L280 287.98 L280 288.28 L280 288.58 Z" stroke="rgb(0, 0, 0)" stroke-width="0" fill-rule="evenodd" stroke-linejoin="miter" fill="rgb(0, 0, 0)" shape-rendering="geometricPrecision" /></g><g id="Solid"><path d="M365.14 301.05 L365.14 301.05 L364.97 300.75 L365.14 300.45 L374.7 300.45 L374.7 300.75 L374.7 301.05 Z" stroke="rgb(0, 0, 0)" stroke-width="0" fill-rule="evenodd" stroke-linejoin="miter" fill="rgb(0, 0, 0)" shape-rendering="geometricPrecision" /></g><g><text xml:space="preserve" text-anchor="start" text-rendering="geometricPrecision"><tspan x="375.77" y="304.65" font-family="Arial" font-size="10" fill="rgb(0, 0, 0)">CH</tspan><tspan font-family="Arial" dy="2.26" font-size="7.5" fill="rgb(0, 0, 0)">3</tspan></text></g><g id="Solid"><path d="M434.32 301.05 L434.32 301.05 L434.49 300.75 L434.84 300.75 L441.86 312.92 L441.69 313.22 L441.52 313.52 Z" stroke="rgb(0, 0, 0)" stroke-width="0" fill-rule="evenodd" stroke-linejoin="miter" fill="rgb(0, 0, 0)" shape-rendering="geometricPrecision" /><line x1="437.48" y1="300.75" x2="443.19" y2="310.63" stroke="rgb(0, 0, 0)" stroke-width="0.6" shape-rendering="auto" /></g><g id="Solid"><path d="M441.52 313.52 L441.52 313.52 L441.69 313.22 L441.86 312.92 L455.92 312.92 L456.09 313.22 L456.26 313.52 Z" stroke="rgb(0, 0, 0)" stroke-width="0" fill-rule="evenodd" stroke-linejoin="miter" fill="rgb(0, 0, 0)" shape-rendering="geometricPrecision" /></g><g id="Solid"><path d="M456.26 313.52 L456.26 313.52 L456.09 313.22 L455.92 312.92 L462.94 300.75 L463.29 300.75 L463.46 301.05 Z" stroke="rgb(0, 0, 0)" stroke-width="0" fill-rule="evenodd" stroke-linejoin="miter" fill="rgb(0, 0, 0)" shape-rendering="geometricPrecision" /><line x1="454.59" y1="310.63" x2="460.3" y2="300.75" stroke="rgb(0, 0, 0)" stroke-width="0.6" shape-rendering="auto" /></g><g id="Solid"><path d="M463.46 300.45 L463.46 300.45 L463.29 300.75 L462.94 300.75 L455.92 288.58 L456.09 288.28 L456.26 287.98 Z" stroke="rgb(0, 0, 0)" stroke-width="0" fill-rule="evenodd" stroke-linejoin="miter" fill="rgb(0, 0, 0)" shape-rendering="geometricPrecision" /></g><g id="Solid"><path d="M456.26 287.98 L456.26 287.98 L456.09 288.28 L455.92 288.58 L441.86 288.58 L441.69 288.28 L441.52 287.98 Z" stroke="rgb(0, 0, 0)" stroke-width="0" fill-rule="evenodd" stroke-linejoin="miter" fill="rgb(0, 0, 0)" shape-rendering="geometricPrecision" /><line x1="454.59" y1="290.87" x2="443.19" y2="290.87" stroke="rgb(0, 0, 0)" stroke-width="0.6" shape-rendering="auto" /></g><g id="Solid"><path d="M441.52 287.98 L441.52 287.98 L441.69 288.28 L441.86 288.58 L434.84 300.75 L434.49 300.75 L434.32 300.45 Z" stroke="rgb(0, 0, 0)" stroke-width="0" fill-rule="evenodd" stroke-linejoin="miter" fill="rgb(0, 0, 0)" shape-rendering="geometricPrecision" /></g><g><text xml:space="preserve" text-anchor="end" text-rendering="geometricPrecision"><tspan x="422.87" y="304.65" font-family="Arial" font-size="10" fill="rgb(0, 0, 0)">N</tspan><tspan font-family="Arial" dy="2.26" font-size="7.5" fill="rgb(0, 0, 0)">2</tspan></text></g><g id="Solid"><path d="M434.32 300.45 L434.32 300.45 L434.49 300.75 L434.32 301.05 L423.29 301.05 L423.29 300.75 L423.29 300.45 Z" stroke="rgb(0, 0, 0)" stroke-width="0" fill-rule="evenodd" stroke-linejoin="miter" fill="rgb(0, 0, 0)" shape-rendering="geometricPrecision" /></g><g id="Charge128"><circle cx="415.75" cy="291.06" r="3.33333333333333" stroke="rgb(0, 0, 0)" stroke-width="0.48" fill="none" /><line x1="413.78" y1="291.06" x2="417.72" y2="291.06" stroke="rgb(0, 0, 0)" stroke-width="0.48" shape-rendering="auto" /><line x1="415.75" y1="289.09" x2="415.75" y2="293.03" stroke="rgb(0, 0, 0)" stroke-width="0.48" shape-rendering="auto" /></g><g id="Solid"><path d="M463.46 301.05 L463.46 301.05 L463.29 300.75 L463.46 300.45 L473.3 300.45 L473.3 300.75 L473.3 301.05 Z" stroke="rgb(0, 0, 0)" stroke-width="0" fill-rule="evenodd" stroke-linejoin="miter" fill="rgb(0, 0, 0)" shape-rendering="geometricPrecision" /></g><g><text xml:space="preserve" text-anchor="start" text-rendering="geometricPrecision"><tspan x="474.09" y="304.65" font-family="Arial" font-size="10" fill="rgb(0, 0, 0)">NO</tspan><tspan font-family="Arial" dy="2.26" font-size="7.5" fill="rgb(0, 0, 0)">2</tspan></text></g><g><text xml:space="preserve" text-anchor="start" text-rendering="geometricPrecision"><tspan x="100.03" y="331.5" font-family="Arial" font-size="10" fill="rgb(0, 0, 0)">D-NH</tspan><tspan font-family="Arial" dy="2.26" font-size="7.5" fill="rgb(0, 0, 0)">2</tspan></text></g><g><text xml:space="preserve" text-anchor="start" text-rendering="geometricPrecision"><tspan x="221.75" y="331.5" font-family="Arial" font-size="10" fill="rgb(0, 0, 0)">D-OH</tspan></text></g><g><text xml:space="preserve" text-anchor="start" text-rendering="geometricPrecision"><tspan x="335.28" y="331.5" font-family="Arial" font-size="10" fill="rgb(0, 0, 0)">D-CH</tspan><tspan font-family="Arial" dy="2.26" font-size="7.5" fill="rgb(0, 0, 0)">3</tspan></text></g><g><text xml:space="preserve" text-anchor="start" text-rendering="geometricPrecision"><tspan x="434.01" y="331.5" font-family="Arial" font-size="10" fill="rgb(0, 0, 0)">D-NO</tspan><tspan font-family="Arial" dy="2.26" font-size="7.5" fill="rgb(0, 0, 0)">2</tspan></text></g></g></g></svg>